<svg width="50" height="50" viewBox="0 0 50 50" fill="none" xmlns="http://www.w3.org/2000/svg">
<rect width="50" height="50" fill="#EEE1B4"/>
<path d="M25 4.16669C13.4956 4.16669 4.16669 13.73 4.16669 25.5273C4.16669 34.9652 10.1361 42.9721 18.4139 45.7967C19.455 45.9944 19.8374 45.3334 19.8374 44.769C19.8374 44.2598 19.8179 42.5769 19.8091 40.7921C14.0131 42.0842 12.7901 38.2717 12.7901 38.2717C11.8424 35.8027 10.4769 35.1465 10.4769 35.1465C8.58679 33.8206 10.6194 33.8477 10.6194 33.8477C12.7115 33.9986 13.8131 36.049 13.8131 36.049C15.6712 39.3146 18.6868 38.3704 19.8756 37.8248C20.0625 36.444 20.6025 35.5019 21.1984 34.9686C16.571 34.4281 11.7065 32.5967 11.7065 24.4119C11.7065 22.0798 12.5203 20.1742 13.8531 18.6783C13.6368 18.1402 12.9237 15.9677 14.0549 13.0254C14.0549 13.0254 15.8044 12.4513 19.7856 15.215C21.4473 14.7416 23.2296 14.5044 25 14.4963C26.7706 14.5044 28.5542 14.7416 30.2192 15.215C34.1956 12.4513 35.9427 13.0254 35.9427 13.0254C37.0767 15.9677 36.3634 18.1402 36.1469 18.6783C37.4827 20.1742 38.2911 22.0796 38.2911 24.4119C38.2911 32.6161 33.4173 34.4227 28.7781 34.9515C29.5254 35.6142 30.1913 36.9144 30.1913 38.9071C30.1913 41.765 30.1671 44.0654 30.1671 44.769C30.1671 45.3375 30.5421 46.0036 31.5981 45.7938C39.8715 42.9661 45.8334 34.9621 45.8334 25.5273C45.8334 13.73 36.5056 4.16669 25 4.16669Z" fill="#111928"/>
</svg>
