<?xml version="1.0" encoding="UTF-8"?>
<svg version="1.1" xmlns="http://www.w3.org/2000/svg" width="752" height="752">
<path d="M0 0 C0.84800649 -0.00453111 1.69601298 -0.00906223 2.56971663 -0.01373065 C5.41003318 -0.02638653 8.25015826 -0.0247535 11.09049988 -0.02310181 C13.12749478 -0.02908633 15.16448741 -0.0358917 17.20147705 -0.04345703 C22.73461163 -0.06113237 28.26768435 -0.06581307 33.80084443 -0.0670886 C38.42057311 -0.0689878 43.04028738 -0.07634562 47.66001052 -0.08343279 C58.56035033 -0.09972032 69.46065711 -0.10460143 80.36100769 -0.10317993 C91.60305788 -0.10197851 102.84491609 -0.1230798 114.0869177 -0.15466726 C123.74057601 -0.18082468 133.39417161 -0.19154744 143.04786509 -0.19026911 C148.81274868 -0.18975931 154.57746168 -0.19545284 160.34230995 -0.21662521 C165.76537428 -0.23599835 171.18810513 -0.2361382 176.61118126 -0.22159195 C178.5993384 -0.21950159 180.58751636 -0.22421821 182.57563782 -0.23631287 C185.29454962 -0.25177932 188.01231359 -0.24244806 190.73120117 -0.22705078 C191.90510704 -0.24248147 191.90510704 -0.24248147 193.10272819 -0.25822389 C199.56162779 -0.17766106 204.96433083 1.70518786 209.6146698 6.30258179 C210.06970886 6.97160522 210.52474792 7.64062866 210.99357605 8.32992554 C211.46666199 9.0015271 211.93974792 9.67312866 212.4271698 10.36508179 C215.51318331 15.5653883 215.06841391 21.42380381 214.55607605 27.26742554 C212.80938678 33.97604738 208.37875706 37.81207684 202.55607605 41.26742554 C199.06746467 42.430296 195.95147183 42.4028759 192.32385254 42.38768005 C191.21400749 42.38896408 191.21400749 42.38896408 190.08174133 42.39027405 C187.58789177 42.39193282 185.09410896 42.38639979 182.6002655 42.38095093 C180.78767238 42.38064469 178.97507914 42.38077792 177.16248608 42.38131618 C172.29997706 42.38154233 167.43749255 42.37573835 162.57498932 42.36870575 C158.01542075 42.36301896 153.45585819 42.36274307 148.89628601 42.36203003 C135.55371277 42.35677867 122.2111441 42.34281757 108.86857605 42.32992554 C79.06545105 42.30930054 49.26232605 42.28867554 18.55607605 42.26742554 C18.55607605 142.58742554 18.55607605 242.90742554 18.55607605 346.26742554 C118.87607605 346.26742554 219.19607605 346.26742554 322.55607605 346.26742554 C322.39772604 287.06032159 322.39772604 287.06032159 322.19572449 227.85336304 C322.17765808 216.40023804 322.17765808 216.40023804 322.17430115 211.03793335 C322.17057565 207.29402173 322.15559038 203.55033715 322.1337738 199.80648804 C322.10629637 195.02775255 322.09811892 190.24934625 322.10378695 185.47053909 C322.10260208 183.71874778 322.09469416 181.96694473 322.07921553 180.21522141 C321.94207657 163.93610189 321.94207657 163.93610189 326.55607605 157.26742554 C328.5912323 155.20883179 328.5912323 155.20883179 330.61857605 153.82992554 C331.29017761 153.3568396 331.96177917 152.88375366 332.6537323 152.39633179 C337.84693013 149.31453677 343.71933542 149.74152632 349.55607605 150.26742554 C356.28443889 152.1913855 359.86584281 156.25437104 363.67217445 161.93232346 C365.00017999 165.44066479 364.837898 168.9286312 364.82350159 172.62905884 C364.8280327 173.48029445 364.83256381 174.33153007 364.83723223 175.20856071 C364.8499097 178.06580234 364.84825369 180.92285417 364.84660339 183.78012085 C364.85258663 185.82682033 364.8593917 187.87351755 364.86695862 189.92021179 C364.88464851 195.48439625 364.88931531 201.04851922 364.89059019 206.61272907 C364.89248832 211.25726083 364.89984502 215.90177823 364.90693438 220.54630446 C364.92322794 231.5055983 364.92810252 242.46485927 364.92668152 253.42416382 C364.9254804 264.7281088 364.94657422 276.03186275 364.97816885 287.3357594 C365.00432654 297.0403525 365.015049 306.74488321 365.0137707 316.44951129 C365.01326084 322.24570853 365.01895716 328.04173612 365.0401268 333.83789825 C365.05950003 339.29131744 365.05963971 344.744405 365.04509354 350.19783592 C365.04300309 352.19728009 365.04772033 354.19674496 365.05981445 356.19615364 C365.07527984 358.93044352 365.06595025 361.66359188 365.05055237 364.39785767 C365.06083949 365.18503465 365.07112662 365.97221163 365.08172548 366.78324246 C365.00578364 372.90552008 363.39536118 378.26338073 359.10878885 382.79869676 C354.27453089 386.98229823 350.81740518 388.51609252 344.46397781 388.52748775 C342.5783983 388.53808614 342.5783983 388.53808614 340.65472627 388.54889864 C339.2571168 388.5466472 337.85950763 388.5442007 336.4618988 388.5415802 C334.97921724 388.54603159 333.49653805 388.5513453 332.01386237 388.55744892 C327.93375982 388.57165142 323.85373337 388.57329179 319.77360964 388.57285202 C315.37537842 388.57449825 310.97717873 388.58756116 306.57896423 388.5990448 C296.95913649 388.62190915 287.33933079 388.62981697 277.71947956 388.63487124 C271.71383396 388.63812663 265.70819477 388.64464815 259.7025528 388.65187263 C243.07754853 388.67144052 226.45255024 388.6878436 209.82753372 388.69074917 C208.76334665 388.69093674 207.69915958 388.69112431 206.60272442 388.69131756 C204.44531488 388.69168381 202.28790535 388.69204751 200.13049582 388.69240867 C199.05954081 388.69259148 197.9885858 388.6927743 196.88517761 388.69296265 C195.81291678 388.6931432 194.74065596 388.69332374 193.63590237 388.69350976 C176.25948246 388.69705178 158.88318644 388.72407503 141.5068095 388.76146054 C123.67052186 388.79952872 105.83429571 388.81890654 87.99796653 388.81920868 C77.98197832 388.81979359 67.96613789 388.8283072 57.95018768 388.85720634 C49.42170292 388.88170033 40.89341985 388.88901655 32.36490944 388.87395882 C28.01347038 388.86678174 23.66242974 388.86768148 19.31103516 388.89036942 C15.32596123 388.91094829 11.3415923 388.90836979 7.35652611 388.88749457 C5.91639992 388.88399753 4.47622299 388.88891894 3.03616336 388.90319901 C-5.00877183 388.97782112 -11.26393598 388.83220143 -17.44392395 383.26742554 C-21.94670954 378.40915688 -23.6921064 374.79890683 -23.70398617 368.1753273 C-23.71105176 366.91827429 -23.71811735 365.66122128 -23.72539705 364.36607575 C-23.72314562 362.96846628 -23.72069911 361.57085712 -23.71807861 360.17324829 C-23.72253 358.69056673 -23.72784372 357.20788754 -23.73394734 355.72521186 C-23.74814983 351.64510931 -23.7497902 347.56508286 -23.74935043 343.48495913 C-23.75099666 339.0867279 -23.76405957 334.68852822 -23.77554321 330.29031372 C-23.79840756 320.67048598 -23.80631538 311.05068028 -23.81136966 301.43082905 C-23.81462504 295.42518344 -23.82114657 289.41954426 -23.82837105 283.41390228 C-23.84793893 266.78889802 -23.86434201 250.16389973 -23.86724758 233.53888321 C-23.86743515 232.47469614 -23.86762272 231.41050907 -23.86781598 230.31407391 C-23.86818223 228.15666437 -23.86854593 225.99925484 -23.86890709 223.8418453 C-23.8690899 222.7708903 -23.86927271 221.69993529 -23.86946106 220.5965271 C-23.86964161 219.52426627 -23.86982216 218.45200544 -23.87000818 217.34725186 C-23.87355019 199.97083195 -23.90057344 182.59453593 -23.93795895 165.21815899 C-23.97602713 147.38187134 -23.99540495 129.5456452 -23.99570709 111.70931602 C-23.996292 101.6933278 -24.00480561 91.67748738 -24.03370476 81.66153717 C-24.05819874 73.13305241 -24.06551496 64.60476934 -24.05045723 56.07625893 C-24.04328016 51.72481987 -24.0441799 47.37377922 -24.06686783 43.02238464 C-24.08744671 39.03731072 -24.08486821 35.05294178 -24.06399298 31.06787559 C-24.06049594 29.62774941 -24.06541736 28.18757248 -24.07969742 26.74751285 C-24.15442717 18.69097262 -23.99773291 12.46383393 -18.44392395 6.26742554 C-12.77910958 0.88585188 -7.62818992 -0.02993308 0 0 Z " fill="#000000" transform="translate(174.4439239501953,212.73257446289063)"/>
<path d="M0 0 C1.15371597 -0.00860046 2.30743195 -0.01720093 3.49610901 -0.02606201 C4.76315674 -0.03032196 6.03020447 -0.03458191 7.33564758 -0.03897095 C8.68270071 -0.04687417 10.02975173 -0.05514326 11.37680054 -0.06375122 C15.80227137 -0.08994942 20.22775154 -0.10527828 24.65327454 -0.11953735 C26.17828184 -0.12489825 27.70328909 -0.13027576 29.22829628 -0.13566971 C35.57380574 -0.15729666 41.91931268 -0.17603179 48.26484966 -0.1872921 C57.34987741 -0.20352114 66.4344768 -0.23667515 75.51934308 -0.29369295 C81.91183239 -0.33244068 88.30420738 -0.35193057 94.69681102 -0.35721266 C98.51236012 -0.36086002 102.32745213 -0.37281452 106.14287376 -0.4053154 C109.73568488 -0.43548123 113.32776439 -0.44167827 116.92067528 -0.42993164 C118.85863997 -0.42960714 120.79656007 -0.45401703 122.73435974 -0.47930908 C130.92408621 -0.42097272 136.01156739 0.91776752 141.9671278 6.59668922 C146.35747289 11.4150767 147.70115963 16.4821662 147.7147522 22.87078857 C147.72183701 23.98655777 147.72892181 25.10232697 147.73622131 26.25190735 C147.7337439 27.46141556 147.73126648 28.67092377 147.72871399 29.91708374 C147.73638039 31.84495979 147.73638039 31.84495979 147.74420166 33.81178284 C147.75755648 37.32634452 147.75817421 40.84079843 147.75563836 44.35538054 C147.75456613 47.29507959 147.75945853 50.23475706 147.76424378 53.17445147 C147.77532708 60.11325558 147.7757832 67.05200554 147.76972961 73.99081421 C147.76369188 81.13562941 147.77599835 88.28024757 147.79729968 95.42502916 C147.81494651 101.57130921 147.82091214 107.71752673 147.81766194 113.86383116 C147.81585363 117.52940648 147.81843968 121.19484127 147.83237648 124.86039352 C147.84734837 128.95103383 147.83795785 133.04127618 147.82637024 137.13192749 C147.83401398 138.33738724 147.84165771 139.54284698 147.84953308 140.78483582 C147.80361302 148.12627619 147.47832635 154.5222447 142.58686829 160.39608765 C141.92429016 160.93491577 141.26171204 161.4737439 140.57905579 162.02890015 C139.59292297 162.86034546 139.59292297 162.86034546 138.58686829 163.70858765 C132.8280431 167.61108823 127.22610069 167.90529277 120.45405579 167.15390015 C114.41044445 165.42567567 109.6504287 161.55923141 106.45405579 156.15390015 C104.77243246 151.14168943 104.18858351 146.74972348 104.13520813 141.47445679 C104.12013969 140.37564682 104.12013969 140.37564682 104.10476685 139.25463867 C104.07412635 136.85778516 104.05695361 134.46104234 104.03999329 132.0640564 C104.02126619 130.39253296 104.00169164 128.72101883 103.98130798 127.04951477 C103.93014352 122.66843161 103.89043422 118.28731786 103.85316467 113.90609741 C103.81302628 109.42807545 103.76197897 104.95017903 103.71186829 100.47225952 C103.61529489 91.69955907 103.53083111 82.9267961 103.45405579 74.15390015 C103.00427604 74.60557849 102.5544963 75.05725684 102.09108686 75.52262241 C75.43361015 102.2919877 48.76309279 129.04829502 22.07557258 155.78771 C18.87123475 158.99830137 15.66700607 162.20900166 12.46284485 165.41976929 C11.82495177 166.05897392 11.18705869 166.69817855 10.52983552 167.35675301 C0.2012021 177.70714341 -10.11856347 188.06633217 -20.43507916 198.42879907 C-31.02084676 209.06132309 -41.61608773 219.68433735 -52.22018385 230.29858226 C-58.76327056 236.84852978 -65.2988545 243.40578365 -71.82503682 249.97257509 C-76.30089828 254.47486478 -80.78592797 258.96788467 -85.27826852 263.45373134 C-87.86992192 266.04218202 -90.45734625 268.6345185 -93.03396225 271.23794556 C-95.82902413 274.06187771 -98.64327973 276.86616969 -101.4596405 279.66886902 C-102.26900071 280.49279343 -103.07836091 281.31671784 -103.91224718 282.16560966 C-109.55108963 287.73072229 -114.42048864 291.01819374 -122.54594421 291.52890015 C-129.24432898 291.18808213 -133.87326105 289.26911149 -138.42094421 284.27890015 C-142.1891412 279.80964326 -143.83617212 275.69915157 -143.92094421 269.84140015 C-143.94930359 268.95839233 -143.97766296 268.07538452 -144.00688171 267.1656189 C-142.67705098 258.47664009 -136.97641323 253.01782829 -130.97862244 247.1055603 C-130.10540808 246.22892825 -129.23219373 245.3522962 -128.33251834 244.44909954 C-125.92013186 242.03128301 -123.49914458 239.6227222 -121.07402492 237.21771836 C-118.45603396 234.61705813 -115.84967104 232.00478881 -113.24185181 229.39393616 C-108.7265133 224.87650384 -104.20392962 220.3664326 -99.67629242 215.86132812 C-93.13017053 209.34776315 -86.59516807 202.82313458 -80.06279597 196.29578364 C-69.4632659 185.70500043 -58.85484059 175.12317418 -48.24076843 164.54696655 C-37.93236301 154.27529698 -27.62818187 143.99941991 -17.32963562 133.71786499 C-16.69445646 133.08373672 -16.05927729 132.44960845 -15.40485027 131.79626417 C-12.21825681 128.614891 -9.03174604 125.43343502 -5.84527636 122.25193787 C20.5750286 95.87307597 47.00979287 69.50874355 73.45405579 43.15390015 C72.49463074 43.15025452 71.53520569 43.14660889 70.54670715 43.14285278 C61.4838537 43.10583468 52.42133789 43.0479878 43.35874176 42.96999741 C38.70006955 42.93056873 34.04158505 42.89835771 29.38276672 42.88290405 C24.8826857 42.867707 20.3831209 42.83320769 15.88327026 42.78559113 C14.17061868 42.77080868 12.45789339 42.76286094 10.74517822 42.7620163 C-7.00302037 42.74446835 -7.00302037 42.74446835 -14.56938171 36.4781189 C-19.44699862 30.5714094 -21.22456759 24.89020661 -20.54594421 17.15390015 C-19.16831184 9.72666473 -14.50504113 5.48288179 -8.54594421 1.15390015 C-5.43592589 0.11722737 -3.26236401 0.01809737 0 0 Z " fill="#000000" transform="translate(454.5459442138672,150.84609985351563)"/>
</svg>
