<svg width="50" height="50" viewBox="0 0 50 50" fill="none" xmlns="http://www.w3.org/2000/svg">
<rect width="50" height="50" fill="#EEE1B4"/>
<path d="M42.742 4.16669H7.19085C5.51074 4.16669 4.16666 5.51077 4.16666 7.19088V42.8092C4.16666 44.4221 5.51074 45.8334 7.19085 45.8334H42.6075C44.2877 45.8334 45.6317 44.4893 45.6317 42.8092V7.12368C45.7661 5.51077 44.4221 4.16669 42.742 4.16669ZM16.4651 39.5834H10.3495V19.7581H16.4651V39.5834ZM13.3737 17.0027C11.3575 17.0027 9.81182 15.3898 9.81182 13.4409C9.81182 11.492 11.4247 9.87905 13.3737 9.87905C15.3226 9.87905 16.9355 11.492 16.9355 13.4409C16.9355 15.3898 15.457 17.0027 13.3737 17.0027ZM39.6506 39.5834H33.535V29.9731C33.535 27.6882 33.4678 24.664 30.3092 24.664C27.0833 24.664 26.6129 27.2178 26.6129 29.7715V39.5834H20.4973V19.7581H26.4785V22.5135H26.5457C27.4194 20.9006 29.3683 19.2877 32.3925 19.2877C38.6425 19.2877 39.785 23.3199 39.785 28.8307V39.5834H39.6506Z" fill="#0C121D"/>
</svg>
