<svg width="60" height="60" viewBox="0 0 60 60" fill="none" xmlns="http://www.w3.org/2000/svg">
<path d="M41.625 27.9375H32.1562V18.375C32.1562 17.25 31.2188 16.2188 30 16.2188C28.875 16.2188 27.8438 17.1563 27.8438 18.375V27.8438H18.375C17.25 27.8438 16.2188 28.7813 16.2188 30C16.2188 31.125 17.1563 32.1562 18.375 32.1562H27.8438V41.625C27.8438 42.75 28.7813 43.7813 30 43.7813C31.125 43.7813 32.1562 42.8438 32.1562 41.625V32.1562H41.625C42.75 32.1562 43.7813 31.2188 43.7813 30C43.6875 28.875 42.75 27.9375 41.625 27.9375Z" fill="#EB5E28"/>
<path d="M52.5 1.6875H7.5C4.3125 1.6875 1.6875 4.3125 1.6875 7.5V52.5C1.6875 55.6875 4.3125 58.4062 7.59375 58.4062H52.5937C55.7812 58.4062 58.5 55.7812 58.5 52.5V7.5C58.4062 4.3125 55.6875 1.6875 52.5 1.6875ZM54.1875 52.5C54.1875 53.4375 53.4375 54.1875 52.5 54.1875H7.5C6.5625 54.1875 5.8125 53.4375 5.8125 52.5V7.5C5.90625 6.5625 6.5625 5.90625 7.5 5.90625H52.5C53.4375 5.90625 54.1875 6.65625 54.1875 7.59375V52.5Z" fill="#EB5E28"/>
</svg>
