<svg width="60" height="60" viewBox="0 0 60 60" fill="none" xmlns="http://www.w3.org/2000/svg">
<path d="M39.6562 20.3437C38.8125 19.5 37.5 19.5 36.6562 20.3437L30 27L23.3437 20.3437C22.5 19.5 21.1875 19.5 20.3437 20.3437C19.5 21.1875 19.5 22.5 20.3437 23.3437L27 30L20.3437 36.6562C19.5 37.5 19.5 38.8125 20.3437 39.6562C20.7187 40.0312 21.2812 40.3125 21.8437 40.3125C22.4062 40.3125 22.9687 40.125 23.3437 39.6562L30 33L36.6562 39.6562C37.0312 40.0312 37.5937 40.3125 38.1562 40.3125C38.7187 40.3125 39.2812 40.125 39.6562 39.6562C40.5 38.8125 40.5 37.5 39.6562 36.6562L33 30L39.6562 23.3437C40.5 22.5 40.5 21.0938 39.6562 20.3437Z" fill="#EB5E28"/>
<path d="M52.5 1.6875H7.5C4.3125 1.6875 1.6875 4.3125 1.6875 7.5V52.5C1.6875 55.6875 4.3125 58.4062 7.59375 58.4062H52.5937C55.7812 58.4062 58.5 55.7812 58.5 52.5V7.5C58.4062 4.3125 55.6875 1.6875 52.5 1.6875ZM54.1875 52.5C54.1875 53.4375 53.4375 54.1875 52.5 54.1875H7.5C6.5625 54.1875 5.8125 53.4375 5.8125 52.5V7.5C5.90625 6.5625 6.5625 5.90625 7.5 5.90625H52.5C53.4375 5.90625 54.1875 6.65625 54.1875 7.59375V52.5Z" fill="#EB5E28"/>
</svg>
