<svg width="34" height="34" viewBox="0 0 34 34" fill="none" xmlns="http://www.w3.org/2000/svg">
<rect width="34" height="34" rx="8" fill="#EB5E28"/>
<path d="M18.7625 14.15C19.025 14 19.2125 13.7 19.2125 13.4C19.2125 13.1 19.0625 12.8 18.7625 12.65L15.125 10.6625L13.1375 7.02495C12.9875 6.76245 12.6875 6.57495 12.3875 6.57495C12.0875 6.57495 11.7875 6.72495 11.6375 7.02495L9.65 10.6625L6.0125 12.65C5.75 12.8 5.5625 13.1 5.5625 13.4C5.5625 13.7 5.7125 14 6.0125 14.15L9.65 16.1375L11.6375 19.775C11.7875 20.0375 12.0875 20.225 12.3875 20.225C12.6875 20.225 12.9875 20.075 13.1375 19.775L15.125 16.1375L18.7625 14.15ZM13.775 15.0875L12.425 17.5625L11.075 15.0875C11 14.9375 10.8875 14.825 10.7375 14.75L8.2625 13.4L10.7375 12.05C10.8875 11.975 11 11.8625 11.075 11.7125L12.425 9.23745L13.775 11.7125C13.85 11.8625 13.9625 11.975 14.1125 12.05L16.5875 13.4L14.1125 14.75C14 14.825 13.8875 14.975 13.775 15.0875Z" fill="#DFE4EA"/>
<path d="M21.5 22.8124L19.8125 21.8749L18.875 20.1874C18.725 19.9249 18.425 19.7374 18.125 19.7374C17.825 19.7374 17.525 19.8874 17.375 20.1874L16.475 21.8749L14.75 22.8124C14.4875 22.9624 14.3 23.2624 14.3 23.5624C14.3 23.8624 14.45 24.1624 14.75 24.3124L16.4375 25.2499L17.375 26.9374C17.525 27.1999 17.825 27.3874 18.125 27.3874C18.425 27.3874 18.725 27.2374 18.875 26.9374L19.8125 25.2499L21.5 24.3124C21.7625 24.1624 21.95 23.8624 21.95 23.5624C21.95 23.2624 21.8 22.9624 21.5 22.8124ZM18.8 23.8624C18.65 23.9374 18.5375 24.0499 18.4625 24.1999L18.125 24.7624L17.825 24.1999C17.75 24.0499 17.6375 23.9374 17.4875 23.8624L16.925 23.5624L17.4875 23.2624C17.6375 23.1874 17.75 23.0749 17.825 22.9249L18.125 22.3624L18.425 22.9249C18.5 23.0749 18.6125 23.1874 18.7625 23.2624L19.325 23.5624L18.8 23.8624Z" fill="#DFE4EA"/>
<path d="M27.9125 9.68743L26.225 8.74993L25.2875 7.06243C25.1375 6.79993 24.8375 6.61243 24.5375 6.61243C24.2375 6.61243 23.9375 6.76243 23.7875 7.06243L22.85 8.74993L21.1625 9.68743C20.9 9.83743 20.7125 10.1374 20.7125 10.4374C20.7125 10.7374 20.8625 11.0374 21.1625 11.1874L22.85 12.1249L23.7875 13.8124C23.9375 14.0749 24.2375 14.2624 24.5375 14.2624C24.8375 14.2624 25.1375 14.1124 25.2875 13.8124L26.225 12.1249L27.9125 11.1874C28.175 11.0374 28.3625 10.7374 28.3625 10.4374C28.3625 10.1374 28.175 9.83743 27.9125 9.68743ZM25.175 10.7374C25.025 10.8124 24.9125 10.9249 24.8375 11.0749L24.5375 11.6374L24.2375 11.0749C24.1625 10.9249 24.05 10.8124 23.9 10.7374L23.3375 10.4374L23.9 10.1374C24.05 10.0624 24.1625 9.94993 24.2375 9.79993L24.5375 9.23743L24.8375 9.79993C24.9125 9.94993 25.025 10.0624 25.175 10.1374L25.7375 10.4374L25.175 10.7374Z" fill="#DFE4EA"/>
</svg>
